<?xml version="1.0" standalone="no"?>
<!DOCTYPE svg PUBLIC "-//W3C//DTD SVG 20010904//EN"
 "http://www.w3.org/TR/2001/REC-SVG-20010904/DTD/svg10.dtd">
<svg version="1.0" xmlns="http://www.w3.org/2000/svg" width="200.000000pt" height="200.000000pt" viewBox="0 0 200.000000 200.000000" preserveAspectRatio="xMidYMid meet">
<metadata>
Created by potrace 1.14, written by Peter Selinger 2001-2017
</metadata>
<g transform="translate(0.000000,200.000000) scale(0.100000,-0.100000)" fill="#000000" stroke="none">
<path d="M0 1000 l0 -1000 1000 0 1000 0 0 1000 0 1000 -1000 0 -1000 0 0
-1000z m640 525 l0 -75 -30 0 c-37 0 -85 -23 -94 -45 -10 -26 -7 -63 11 -170
19 -116 15 -142 -31 -193 l-34 -37 33 -37 c46 -50 51 -89 30 -219 -9 -60 -14
-120 -11 -134 7 -29 52 -55 96 -55 l30 0 0 -75 0 -75 -94 0 c-80 0 -98 3 -126
23 -69 47 -87 141 -55 287 17 77 19 144 5 170 -6 11 -30 33 -55 50 -41 28 -45
35 -45 70 0 22 4 40 9 40 4 0 29 18 55 41 41 36 46 45 46 82 0 23 -7 77 -15
120 -21 111 -19 189 5 237 29 58 58 69 173 70 l97 0 0 -75z m974 54 c61 -48
73 -117 46 -271 -11 -62 -20 -125 -20 -140 0 -31 40 -82 81 -104 25 -13 29
-20 29 -59 0 -34 -4 -45 -19 -50 -33 -10 -91 -82 -91 -113 0 -15 9 -77 20
-138 26 -153 15 -213 -50 -268 -29 -24 -38 -26 -131 -26 l-99 0 0 74 0 73 45
6 c25 2 55 13 65 22 24 22 25 49 5 184 -18 118 -12 151 36 205 l28 33 -24 23
c-43 41 -57 95 -45 175 6 39 14 100 17 137 l6 67 -34 20 c-19 12 -49 21 -66
21 l-33 0 0 75 0 75 104 0 c90 0 107 -3 130 -21z m-498 -214 c-19 -110 -32
-203 -29 -207 2 -5 53 -8 114 -8 60 0 109 -3 109 -6 0 -8 -433 -725 -436 -721
-1 1 13 112 32 247 18 135 33 253 34 262 0 15 -14 18 -119 20 l-119 3 221 313
c122 172 223 309 225 304 1 -4 -13 -97 -32 -207z"></path>
<path d="M932 1153 l-90 -128 89 -3 89 -3 0 -27 c0 -15 -7 -72 -15 -127 -8
-54 -13 -100 -12 -101 1 -2 46 69 99 157 l97 159 -94 0 c-110 0 -104 -9 -80
120 7 41 12 76 11 78 -2 1 -44 -55 -94 -125z"></path>
</g>
</svg>
